<?xml version="1.0" encoding="UTF-8" standalone="no" ?>
<!DOCTYPE svg PUBLIC "-//W3C//DTD SVG 1.1//EN" "http://www.w3.org/Graphics/SVG/1.1/DTD/svg11.dtd">
<svg xmlns="http://www.w3.org/2000/svg" xmlns:xlink="http://www.w3.org/1999/xlink" version="1.1" width="1080" height="1080" viewBox="0 0 1080 1080" xml:space="preserve">
<desc>Created with Fabric.js 5.2.4</desc>
<defs>
</defs>
<g transform="matrix(1 0 0 1 540 540)" id="747d9af3-094c-40ab-bb15-ea2910251edf"  >
<rect style="stroke: none; stroke-width: 1; stroke-dasharray: none; stroke-linecap: butt; stroke-dashoffset: 0; stroke-linejoin: miter; stroke-miterlimit: 4; fill: rgb(255,255,255); fill-rule: nonzero; opacity: 1; visibility: hidden;" vector-effect="non-scaling-stroke"  x="-540" y="-540" rx="0" ry="0" width="1080" height="1080" />
</g>
<g transform="matrix(1 0 0 1 540 540)" id="d1e9a937-fe08-4539-89b0-73400f347f21"  >
</g>
<g transform="matrix(1 0 0 1 540 540)"  >
<g style="" vector-effect="non-scaling-stroke"   >
		<g transform="matrix(1 0 0 1 -0.03 0)"  >
<path style="stroke: none; stroke-width: 1; stroke-dasharray: none; stroke-linecap: butt; stroke-dashoffset: 0; stroke-linejoin: miter; stroke-miterlimit: 4; fill: rgb(51,49,162); fill-rule: nonzero; opacity: 1;" vector-effect="non-scaling-stroke"  transform=" translate(-127.95, -127.55)" d="M 64.1 10.6 C 61.199999999999996 11.9 58.699999999999996 15.3 57.599999999999994 19.4 C 57.3 20.5 56.699999999999996 25.2 56.3 29.9 C 54.099999999999994 54.099999999999994 50.5 64.1 39.199999999999996 77.4 C 34.49999999999999 83 33.99999999999999 84.4 34.099999999999994 90.9 C 34.099999999999994 93.9 34.599999999999994 100.2 35.199999999999996 104.9 L 36.3 113.4 L 57.699999999999996 113.60000000000001 C 77.69999999999999 113.80000000000001 79.19999999999999 113.9 80.5 114.80000000000001 C 83.1 116.60000000000001 83.5 118.00000000000001 83.7 126.60000000000001 C 83.8 133.60000000000002 83.8 134.70000000000002 82.9 136.60000000000002 C 81.10000000000001 140.70000000000002 81.9 140.50000000000003 58.400000000000006 140.8 L 37.7 141 L 37.7 152.2 L 37.7 163.39999999999998 L 58.400000000000006 163.59999999999997 C 81.2 163.89999999999998 80.4 163.69999999999996 82.4 166.99999999999997 C 83.4 168.59999999999997 83.5 169.39999999999998 83.60000000000001 176.69999999999996 C 83.7 184.29999999999995 83.7 184.89999999999995 82.60000000000001 186.89999999999995 C 81.9 188.19999999999996 80.80000000000001 189.49999999999994 79.80000000000001 190.09999999999994 C 78.20000000000002 190.99999999999994 77.10000000000001 191.09999999999994 57.70000000000001 191.19999999999993 L 37.30000000000001 191.29999999999993 L 37.40000000000001 213.29999999999993 C 37.600000000000016 238.39999999999992 37.600000000000016 238.19999999999993 41.600000000000016 242.39999999999992 C 44.80000000000002 245.69999999999993 46.20000000000002 245.99999999999991 54.90000000000002 245.0999999999999 C 76.70000000000002 242.7999999999999 97.50000000000003 241.89999999999992 127.60000000000002 241.89999999999992 C 157.40000000000003 241.89999999999992 178.60000000000002 242.79999999999993 200.60000000000002 245.0999999999999 C 209.50000000000003 245.99999999999991 210.90000000000003 245.6999999999999 214.10000000000002 242.39999999999992 C 218.10000000000002 238.29999999999993 218.20000000000002 237.99999999999991 218.40000000000003 212.99999999999991 L 218.50000000000003 191.1999999999999 L 198.10000000000002 191.0999999999999 C 175.50000000000003 190.99999999999991 175.90000000000003 190.99999999999991 173.50000000000003 187.6999999999999 C 172.50000000000003 186.1999999999999 172.40000000000003 185.5999999999999 172.20000000000002 178.0999999999999 C 172.00000000000003 168.99999999999991 172.50000000000003 166.6999999999999 175.20000000000002 164.7999999999999 C 176.8 163.6999999999999 176.9 163.6999999999999 197.50000000000003 163.3999999999999 L 218.20000000000002 163.1999999999999 L 218.20000000000002 151.99999999999991 L 218.20000000000002 140.79999999999993 L 197.50000000000003 140.59999999999994 C 174.10000000000002 140.29999999999993 174.90000000000003 140.49999999999994 173.10000000000002 136.59999999999994 C 172.3 134.89999999999995 172.20000000000002 133.39999999999995 172.20000000000002 126.99999999999994 C 172.20000000000002 118.29999999999994 172.8 116.09999999999994 175.70000000000002 114.29999999999994 C 177.3 113.39999999999993 178.10000000000002 113.29999999999994 198.4 113.29999999999994 L 219.5 113.29999999999994 L 219.7 112.19999999999995 C 220.6 108.19999999999995 221.89999999999998 93.09999999999994 221.79999999999998 88.79999999999995 C 221.7 83.89999999999995 221.6 83.69999999999996 219.79999999999998 81.09999999999995 C 218.79999999999998 79.59999999999995 216.49999999999997 76.59999999999995 214.6 74.29999999999995 C 205.1 62.69999999999995 202 53.299999999999955 199.5 28.399999999999956 C 198.8 21.199999999999957 198.3 18.199999999999957 197.5 16.299999999999955 C 196.2 13.399999999999954 192.8 10.099999999999955 190.5 9.699999999999955 C 189.7 9.599999999999955 183.7 9.499999999999956 177.3 9.599999999999955 L 166 10.2 L 164.9 12.399999999999999 C 164.1 13.999999999999998 163.70000000000002 16.2 163.3 20.099999999999998 C 162.70000000000002 26.9 160.9 35.5 158.9 41.3 C 154.70000000000002 53.9 146.1 63.4 136 66.69999999999999 C 132 68.1 124.1 67.99999999999999 119.8 66.49999999999999 C 106 61.69999999999999 96.3 46.09999999999999 93.6 24.499999999999986 C 92.5 15.299999999999986 92.1 12.999999999999986 91.19999999999999 11.599999999999985 L 90.39999999999999 10.099999999999985 L 78 10.1 C 68.5 10 65.3 10.1 64.1 10.6 z M 183.5 20.9 C 184.7 22 184.7 22.299999999999997 184.7 28.5 C 184.7 34.6 184.7 34.9 183.5 36.1 C 182.7 37 181.8 37.300000000000004 180.4 37.300000000000004 C 177.8 37.300000000000004 177 37.00000000000001 176.20000000000002 35.300000000000004 C 175.20000000000002 33.400000000000006 175.20000000000002 23.700000000000003 176.20000000000002 21.700000000000003 C 177.00000000000003 20.000000000000004 177.50000000000003 19.800000000000004 180.20000000000002 19.800000000000004 C 181.9 19.7 182.6 20 183.5 20.9 z M 78.1 21.6 C 78.8 22.5 79 23.6 79 29.1 C 79 34.9 78.9 35.6 77.9 36.6 C 76.5 38.1 72.60000000000001 38.2 71.2 36.7 C 70.3 35.800000000000004 70.2 35.1 70.2 29.000000000000004 L 70.2 22.200000000000003 L 71.60000000000001 21.200000000000003 C 73.3 19.7 76.8 20 78.1 21.6 z" stroke-linecap="round" />
</g>
		<g transform="matrix(1 0 0 1 -73.58 -0.2)"  >
<path style="stroke: none; stroke-width: 1; stroke-dasharray: none; stroke-linecap: butt; stroke-dashoffset: 0; stroke-linejoin: miter; stroke-miterlimit: 4; fill: rgb(51,49,162); fill-rule: nonzero; opacity: 1;" vector-effect="non-scaling-stroke"  transform=" translate(-54.4, -127.35)" d="M 30.2 116.4 C 27.4 117.9 27.099999999999998 119.10000000000001 27.099999999999998 127.4 C 27.099999999999998 134 27.2 135.1 27.999999999999996 136.3 C 29.899999999999995 139.10000000000002 29.599999999999998 139.10000000000002 54.8 139.10000000000002 L 78 139.10000000000002 L 79.9 137.40000000000003 L 81.7 135.70000000000005 L 81.7 127.30000000000004 L 81.7 119 L 79.9 117.3 L 78 115.6 L 54.8 115.6 C 35.6 115.7 31.3 115.8 30.2 116.4 z" stroke-linecap="round" />
</g>
		<g transform="matrix(1 0 0 1 73.87 -0.05)"  >
<path style="stroke: none; stroke-width: 1; stroke-dasharray: none; stroke-linecap: butt; stroke-dashoffset: 0; stroke-linejoin: miter; stroke-miterlimit: 4; fill: rgb(51,49,162); fill-rule: nonzero; opacity: 1;" vector-effect="non-scaling-stroke"  transform=" translate(-201.85, -127.5)" d="M 176.5 117.3 L 174.7 119 L 174.7 127.4 L 174.7 135.8 L 176.5 137.5 L 178.4 139.2 L 201.5 139.2 C 226.9 139.2 226.8 139.2 228.3 136.29999999999998 C 228.8 135.2 229 133.1 229 127.49999999999999 C 229 121.89999999999999 228.8 119.79999999999998 228.3 118.69999999999999 C 226.8 115.79999999999998 226.9 115.79999999999998 201.5 115.79999999999998 L 178.4 115.79999999999998 L 176.5 117.3 z" stroke-linecap="round" />
</g>
		<g transform="matrix(1 0 0 1 -73.63 49.94)"  >
<path style="stroke: none; stroke-width: 1; stroke-dasharray: none; stroke-linecap: butt; stroke-dashoffset: 0; stroke-linejoin: miter; stroke-miterlimit: 4; fill: rgb(51,49,162); fill-rule: nonzero; opacity: 1;" vector-effect="non-scaling-stroke"  transform=" translate(-54.35, -177.49)" d="M 30.2 166.6 C 27.599999999999998 168 27.099999999999998 169.4 26.9 176.6 C 26.7 184.4 27.2 186.5 29.7 188.1 L 31.4 189.2 L 54.7 189.2 L 78 189.2 L 79.9 187.5 L 81.7 185.8 L 81.8 178.10000000000002 C 81.89999999999999 170.70000000000002 81.89999999999999 170.40000000000003 80.8 168.70000000000002 C 80.2 167.8 79.1 166.8 78.5 166.4 C 76.6 165.5 32 165.6 30.2 166.6 z" stroke-linecap="round" />
</g>
		<g transform="matrix(1 0 0 1 73.97 50.05)"  >
<path style="stroke: none; stroke-width: 1; stroke-dasharray: none; stroke-linecap: butt; stroke-dashoffset: 0; stroke-linejoin: miter; stroke-miterlimit: 4; fill: rgb(51,49,162); fill-rule: nonzero; opacity: 1;" vector-effect="non-scaling-stroke"  transform=" translate(-201.95, -177.6)" d="M 178.2 166.3 C 177.7 166.5 176.7 167.3 176 168 C 174.8 169.3 174.8 169.4 174.8 177.6 L 174.8 185.9 L 176.60000000000002 187.6 L 178.50000000000003 189.29999999999998 L 201.60000000000002 189.29999999999998 C 227.00000000000003 189.29999999999998 226.90000000000003 189.29999999999998 228.40000000000003 186.39999999999998 C 228.90000000000003 185.29999999999998 229.10000000000002 183.2 229.10000000000002 177.59999999999997 C 229.10000000000002 171.99999999999994 228.90000000000003 169.89999999999998 228.40000000000003 168.79999999999995 C 226.90000000000003 165.89999999999995 227.00000000000003 165.89999999999995 202.00000000000003 165.89999999999995 C 189.4 165.9 178.7 166.1 178.2 166.3 z" stroke-linecap="round" />
</g>
</g>
</g>
</svg>