<?xml version="1.0"?>
<svg width="256" height="256" xmlns="http://www.w3.org/2000/svg" xmlns:svg="http://www.w3.org/2000/svg" enable-background="new 0 0 256 256" version="1.1" xml:space="preserve">
 <metadata>Svg Vector Icons : http://www.onlinewebfonts.com/icon</metadata>

 <g class="layer">
  <title>Layer 1</title>
  <g id="svg_1">
   <g id="svg_2">
    <g id="svg_3">
     <path d="m64.1,10.6c-2.9,1.3 -5.4,4.7 -6.5,8.8c-0.3,1.1 -0.9,5.8 -1.3,10.5c-2.2,24.2 -5.8,34.2 -17.1,47.5c-4.7,5.6 -5.2,7 -5.1,13.5c0,3 0.5,9.3 1.1,14l1.1,8.5l21.4,0.2c20,0.2 21.5,0.3 22.8,1.2c2.6,1.8 3,3.2 3.2,11.8c0.1,7 0.1,8.1 -0.8,10c-1.8,4.1 -1,3.9 -24.5,4.2l-20.7,0.2l0,11.2l0,11.2l20.7,0.2c22.8,0.3 22,0.1 24,3.4c1,1.6 1.1,2.4 1.2,9.7c0.1,7.6 0.1,8.2 -1,10.2c-0.7,1.3 -1.8,2.6 -2.8,3.2c-1.6,0.9 -2.7,1 -22.1,1.1l-20.4,0.1l0.1,22c0.2,25.1 0.2,24.9 4.2,29.1c3.2,3.3 4.6,3.6 13.3,2.7c21.8,-2.3 42.6,-3.2 72.7,-3.2c29.8,0 51,0.9 73,3.2c8.9,0.9 10.3,0.6 13.5,-2.7c4,-4.1 4.1,-4.4 4.3,-29.4l0.1,-21.8l-20.4,-0.1c-22.6,-0.1 -22.2,-0.1 -24.6,-3.4c-1,-1.5 -1.1,-2.1 -1.3,-9.6c-0.2,-9.1 0.3,-11.4 3,-13.3c1.6,-1.1 1.7,-1.1 22.3,-1.4l20.7,-0.2l0,-11.2l0,-11.2l-20.7,-0.2c-23.4,-0.3 -22.6,-0.1 -24.4,-4c-0.8,-1.7 -0.9,-3.2 -0.9,-9.6c0,-8.7 0.6,-10.9 3.5,-12.7c1.6,-0.9 2.4,-1 22.7,-1l21.1,0l0.2,-1.1c0.9,-4 2.2,-19.1 2.1,-23.4c-0.1,-4.9 -0.2,-5.1 -2,-7.7c-1,-1.5 -3.3,-4.5 -5.2,-6.8c-9.5,-11.6 -12.6,-21 -15.1,-45.9c-0.7,-7.2 -1.2,-10.2 -2,-12.1c-1.3,-2.9 -4.7,-6.2 -7,-6.6c-0.8,-0.1 -6.8,-0.2 -13.2,-0.1l-11.3,0.6l-1.1,2.2c-0.8,1.6 -1.2,3.8 -1.6,7.7c-0.6,6.8 -2.4,15.4 -4.4,21.2c-4.2,12.6 -12.8,22.1 -22.9,25.4c-4,1.4 -11.9,1.3 -16.2,-0.2c-13.8,-4.8 -23.5,-20.4 -26.2,-42c-1.1,-9.2 -1.5,-11.5 -2.4,-12.9l-0.8,-1.5l-12.4,0c-9.5,-0.1 -12.7,0 -13.9,0.5zm119.4,10.3c1.2,1.1 1.2,1.4 1.2,7.6c0,6.1 0,6.4 -1.2,7.6c-0.8,0.9 -1.7,1.2 -3.1,1.2c-2.6,0 -3.4,-0.3 -4.2,-2c-1,-1.9 -1,-11.6 0,-13.6c0.8,-1.7 1.3,-1.9 4,-1.9c1.7,-0.1 2.4,0.2 3.3,1.1zm-105.4,0.7c0.7,0.9 0.9,2 0.9,7.5c0,5.8 -0.1,6.5 -1.1,7.5c-1.4,1.5 -5.3,1.6 -6.7,0.1c-0.9,-0.9 -1,-1.6 -1,-7.7l0,-6.8l1.4,-1c1.7,-1.5 5.2,-1.2 6.5,0.4z" fill="#00ff00" id="svg_4"/>
     <path d="m30.2,116.4c-2.8,1.5 -3.1,2.7 -3.1,11c0,6.6 0.1,7.7 0.9,8.9c1.9,2.8 1.6,2.8 26.8,2.8l23.2,0l1.9,-1.7l1.8,-1.7l0,-8.4l0,-8.3l-1.8,-1.7l-1.9,-1.7l-23.2,0c-19.2,0.1 -23.5,0.2 -24.6,0.8z" fill="#00ff00" id="svg_5"/>
     <path d="m176.5,117.3l-1.8,1.7l0,8.4l0,8.4l1.8,1.7l1.9,1.7l23.1,0c25.4,0 25.3,0 26.8,-2.9c0.5,-1.1 0.7,-3.2 0.7,-8.8c0,-5.6 -0.2,-7.7 -0.7,-8.8c-1.5,-2.9 -1.4,-2.9 -26.8,-2.9l-23.1,0l-1.9,1.5z" fill="#00ff00" id="svg_6"/>
     <path d="m30.2,166.6c-2.6,1.4 -3.1,2.8 -3.3,10c-0.2,7.8 0.3,9.9 2.8,11.5l1.7,1.1l23.3,0l23.3,0l1.9,-1.7l1.8,-1.7l0.1,-7.7c0.1,-7.4 0.1,-7.7 -1,-9.4c-0.6,-0.9 -1.7,-1.9 -2.3,-2.3c-1.9,-0.9 -46.5,-0.8 -48.3,0.2z" fill="#00ff00" id="svg_7"/>
     <path d="m178.2,166.3c-0.5,0.2 -1.5,1 -2.2,1.7c-1.2,1.3 -1.2,1.4 -1.2,9.6l0,8.3l1.8,1.7l1.9,1.7l23.1,0c25.4,0 25.3,0 26.8,-2.9c0.5,-1.1 0.7,-3.2 0.7,-8.8s-0.2,-7.7 -0.7,-8.8c-1.5,-2.9 -1.4,-2.9 -26.4,-2.9c-12.6,0 -23.3,0.2 -23.8,0.4z" fill="#00ff00" id="svg_8"/>
    </g>
   </g>
  </g>
 </g>
</svg>